<svg height="300px" 
     width="300px" 
     x="0px" 
     y="0px" 
     viewBox="0 0 30 30" 
     fill="#7fffd4"
     version="1.1" 
     xmlns="http://www.w3.org/2000/svg" 
     xmlns:xlink="http://www.w3.org/1999/xlink" 
     xml:space="preserve">
  <rect width="100%" height="100%" fill="#323232"/>
  <g>
    <path d="M481.131,231.991c-1.117-1.211-2.238-2.019-3.529-2.544c-0.235-0.095-0.474-0.179-0.714-0.25   c-0.743-3.432-2.315-5.881-4.683-7.287c-2.273-1.35-4.688-1.686-7.143-0.938c-0.868-0.766-1.867-1.382-2.926-1.799   c-2.838-1.12-6.043-0.745-8.791,1.02c-0.305,0.196-0.597,0.41-0.836,0.607c-0.877,0.649-1.613,1.45-2.16,2.349   c-0.645-0.067-1.288-0.068-1.978-0.01c-0.416,0.035-0.83,0.126-1.246,0.243c-1.991-0.997-4.086-1.221-6.202-0.579   c-0.829-0.729-1.783-1.314-2.791-1.711c-2.719-1.074-5.799-0.716-8.442,0.98c-0.293,0.187-0.573,0.394-0.799,0.581   c-0.835,0.617-1.538,1.379-2.062,2.232c-0.61-0.063-1.22-0.062-1.867-0.006c-1.175,0.099-2.32,0.525-3.605,1.342   c-1.679,1.066-2.909,2.896-3.555,5.296c-0.221,0.82-0.306,1.716-0.254,2.63c-1.467,0.507-2.743,1.465-3.586,2.716   c-2.097,3.112-1.681,7.155,0.965,9.406c1.279,1.085,2.964,1.619,4.698,1.497c1.158,1.713,2.783,2.942,4.536,3.414   c0.834,0.225,1.612,0.343,2.347,0.353c0.601,0.009,1.173-0.055,1.723-0.189c1.385-0.337,2.584-0.979,3.648-1.958   c1.995,1.59,4.835,2.303,7.452,1.833c1.835-0.331,3.548-1.21,4.956-2.535c0.971,0.898,2.077,1.571,3.255,1.888   c0.869,0.234,1.68,0.356,2.444,0.367c0.625,0.009,1.219-0.057,1.791-0.195c1.456-0.354,2.714-1.031,3.827-2.066   c2.083,1.675,5.065,2.428,7.795,1.933c2.24-0.404,4.294-1.588,5.864-3.362c3.465,1.341,7.594,0.739,10.287-1.578   c2.07-1.779,3.413-4.194,3.68-6.625c0.299-2.71-0.466-5.281-2.097-7.054C481.131,231.991,481.131,231.991,481.131,231.991z    M438.965,249.192c-2.256,0.401-4.697-0.299-6.387-1.949c-0.202-0.213-0.56-0.236-0.855-0.231c-0.293,0.01-0.646,0.231-0.834,0.456   c-0.914,0.98-1.914,1.577-3.145,1.876c-0.881,0.214-1.873,0.164-3.048-0.152c-1.425-0.384-2.756-1.491-3.653-3.039   c-0.216-0.372-0.634-0.574-1.06-0.499c-1.386,0.23-2.739-0.117-3.722-0.954c-2.104-1.788-1.875-4.78-0.591-6.685   c0.713-1.06,1.881-1.825,3.203-2.099c0.537-0.112,0.893-0.626,0.808-1.168c-0.147-0.946-0.109-1.878,0.111-2.695   c0.356-1.32,1.107-3.101,2.671-4.093c0.995-0.632,1.845-0.959,2.675-1.029c0.729-0.061,1.389-0.034,2.081,0.083   c0.443,0.073,0.902-0.154,1.102-0.568c0.397-0.824,1.017-1.562,1.836-2.169c0.206-0.169,0.422-0.327,0.647-0.472   c2.08-1.335,4.474-1.627,6.576-0.798c0.943,0.372,1.828,0.958,2.559,1.694c0.286,0.288,0.824,0.338,1.204,0.192   c1.112-0.421,2.233-0.482,3.353-0.254c-1.678,1.12-2.918,2.979-3.573,5.411c-0.234,0.867-0.322,1.812-0.264,2.777   c-1.539,0.523-2.88,1.525-3.763,2.834c-2.18,3.235-1.749,7.44,1.001,9.78c1.334,1.135,3.094,1.685,4.911,1.555   c0.037,0.055,0.083,0.098,0.12,0.152c-0.011,0.009-0.025,0.012-0.035,0.022C441.772,248.23,440.414,248.93,438.965,249.192z    M481.184,238.82c-0.212,1.917-1.298,3.845-2.977,5.29c-2.287,1.967-5.907,2.36-8.796,0.958c-0.443-0.214-0.973-0.089-1.268,0.302   c-1.307,1.713-3.122,2.854-5.11,3.213c-2.372,0.426-4.946-0.311-6.735-2.061c-0.203-0.209-0.569-0.226-0.858-0.22   c-0.292,0.011-0.646,0.237-0.833,0.462c-0.964,1.033-2.018,1.662-3.316,1.978c-0.926,0.224-1.975,0.173-3.213-0.16   c-1.503-0.404-2.907-1.571-3.852-3.203c-0.184-0.317-0.518-0.508-0.877-0.513c-0.06-0.001-0.123,0.003-0.185,0.014   c-1.462,0.24-2.895-0.126-3.934-1.01c-2.223-1.89-1.983-5.048-0.627-7.059c0.754-1.119,1.987-1.927,3.382-2.216   c0.537-0.112,0.893-0.626,0.808-1.169c-0.155-0.996-0.115-1.978,0.118-2.841c0.375-1.389,1.166-3.265,2.815-4.311   c1.047-0.665,1.943-1.009,2.818-1.085c0.773-0.063,1.472-0.034,2.193,0.088c0.452,0.073,0.905-0.154,1.103-0.569   c0.419-0.868,1.072-1.648,1.932-2.284c0.218-0.178,0.444-0.344,0.684-0.498c2.189-1.404,4.715-1.71,6.926-0.839   c0.994,0.392,1.926,1.009,2.694,1.783c0.286,0.292,0.831,0.338,1.209,0.191c1.926-0.733,3.954-0.519,5.869,0.618   c1.977,1.175,3.268,3.374,3.836,6.536c0.074,0.413,0.392,0.74,0.802,0.826c0.352,0.074,0.699,0.177,1.037,0.314   c1.013,0.412,1.874,1.039,2.79,2.032C480.845,234.723,481.417,236.702,481.184,238.82z"/>
  </g>
  <g>
    <path d="M481.131,231.991c-1.117-1.211-2.238-2.019-3.529-2.544c-0.235-0.095-0.474-0.179-0.714-0.25   c-0.743-3.432-2.315-5.881-4.683-7.287c-2.273-1.35-4.688-1.686-7.143-0.938c-0.868-0.766-1.867-1.382-2.926-1.799   c-2.838-1.12-6.043-0.745-8.791,1.02c-0.305,0.196-0.597,0.41-0.836,0.607c-0.877,0.649-1.613,1.45-2.16,2.349   c-0.645-0.067-1.288-0.068-1.978-0.01c-0.416,0.035-0.83,0.126-1.246,0.243c-1.991-0.997-4.086-1.221-6.202-0.579   c-0.829-0.729-1.783-1.314-2.791-1.711c-2.719-1.074-5.799-0.716-8.442,0.98c-0.293,0.187-0.573,0.394-0.799,0.581   c-0.835,0.617-1.538,1.379-2.062,2.232c-0.61-0.063-1.22-0.062-1.867-0.006c-1.175,0.099-2.32,0.525-3.605,1.342   c-1.679,1.066-2.909,2.896-3.555,5.296c-0.221,0.82-0.306,1.716-0.254,2.63c-1.467,0.507-2.743,1.465-3.586,2.716   c-2.097,3.112-1.681,7.155,0.965,9.406c1.279,1.085,2.964,1.619,4.698,1.497c1.158,1.713,2.783,2.942,4.536,3.414   c0.834,0.225,1.612,0.343,2.347,0.353c0.601,0.009,1.173-0.055,1.723-0.189c1.385-0.337,2.584-0.979,3.648-1.958   c1.995,1.59,4.835,2.303,7.452,1.833c1.835-0.331,3.548-1.21,4.956-2.535c0.971,0.898,2.077,1.571,3.255,1.888   c0.869,0.234,1.68,0.356,2.444,0.367c0.625,0.009,1.219-0.057,1.791-0.195c1.456-0.354,2.714-1.031,3.827-2.066   c2.083,1.675,5.065,2.428,7.795,1.933c2.24-0.404,4.294-1.588,5.864-3.362c3.465,1.341,7.594,0.739,10.287-1.578   c2.07-1.779,3.413-4.194,3.68-6.625c0.299-2.71-0.466-5.281-2.097-7.054C481.131,231.991,481.131,231.991,481.131,231.991z    M438.965,249.192c-2.256,0.401-4.697-0.299-6.387-1.949c-0.202-0.213-0.56-0.236-0.855-0.231c-0.293,0.01-0.646,0.231-0.834,0.456   c-0.914,0.98-1.914,1.577-3.145,1.876c-0.881,0.214-1.873,0.164-3.048-0.152c-1.425-0.384-2.756-1.491-3.653-3.039   c-0.216-0.372-0.634-0.574-1.06-0.499c-1.386,0.23-2.739-0.117-3.722-0.954c-2.104-1.788-1.875-4.78-0.591-6.685   c0.713-1.06,1.881-1.825,3.203-2.099c0.537-0.112,0.893-0.626,0.808-1.168c-0.147-0.946-0.109-1.878,0.111-2.695   c0.356-1.32,1.107-3.101,2.671-4.093c0.995-0.632,1.845-0.959,2.675-1.029c0.729-0.061,1.389-0.034,2.081,0.083   c0.443,0.073,0.902-0.154,1.102-0.568c0.397-0.824,1.017-1.562,1.836-2.169c0.206-0.169,0.422-0.327,0.647-0.472   c2.08-1.335,4.474-1.627,6.576-0.798c0.943,0.372,1.828,0.958,2.559,1.694c0.286,0.288,0.824,0.338,1.204,0.192   c1.112-0.421,2.233-0.482,3.353-0.254c-1.678,1.12-2.918,2.979-3.573,5.411c-0.234,0.867-0.322,1.812-0.264,2.777   c-1.539,0.523-2.88,1.525-3.763,2.834c-2.18,3.235-1.749,7.44,1.001,9.78c1.334,1.135,3.094,1.685,4.911,1.555   c0.037,0.055,0.083,0.098,0.12,0.152c-0.011,0.009-0.025,0.012-0.035,0.022C441.772,248.23,440.414,248.93,438.965,249.192z    M481.184,238.82c-0.212,1.917-1.298,3.845-2.977,5.29c-2.287,1.967-5.907,2.36-8.796,0.958c-0.443-0.214-0.973-0.089-1.268,0.302   c-1.307,1.713-3.122,2.854-5.11,3.213c-2.372,0.426-4.946-0.311-6.735-2.061c-0.203-0.209-0.569-0.226-0.858-0.22   c-0.292,0.011-0.646,0.237-0.833,0.462c-0.964,1.033-2.018,1.662-3.316,1.978c-0.926,0.224-1.975,0.173-3.213-0.16   c-1.503-0.404-2.907-1.571-3.852-3.203c-0.184-0.317-0.518-0.508-0.877-0.513c-0.06-0.001-0.123,0.003-0.185,0.014   c-1.462,0.24-2.895-0.126-3.934-1.01c-2.223-1.89-1.983-5.048-0.627-7.059c0.754-1.119,1.987-1.927,3.382-2.216   c0.537-0.112,0.893-0.626,0.808-1.169c-0.155-0.996-0.115-1.978,0.118-2.841c0.375-1.389,1.166-3.265,2.815-4.311   c1.047-0.665,1.943-1.009,2.818-1.085c0.773-0.063,1.472-0.034,2.193,0.088c0.452,0.073,0.905-0.154,1.103-0.569   c0.419-0.868,1.072-1.648,1.932-2.284c0.218-0.178,0.444-0.344,0.684-0.498c2.189-1.404,4.715-1.71,6.926-0.839   c0.994,0.392,1.926,1.009,2.694,1.783c0.286,0.292,0.831,0.338,1.209,0.191c1.926-0.733,3.954-0.519,5.869,0.618   c1.977,1.175,3.268,3.374,3.836,6.536c0.074,0.413,0.392,0.74,0.802,0.826c0.352,0.074,0.699,0.177,1.037,0.314   c1.013,0.412,1.874,1.039,2.79,2.032C480.845,234.723,481.417,236.702,481.184,238.82z"/>
  </g>
  <g>
    <path d="M25,25.977c-0.489-0.808-2.435,0.082-4.038,1.001c-0.306,0.176-0.501,0.279-0.624,0.233   c-0.032-0.031-0.071-0.054-0.114-0.073c-0.258-0.232-0.65-0.996-1.177-3.104c-0.008-0.11-0.215-2.571-1.826-3.358   c-0.051-1.357-0.499-2.341-0.899-3.208c-0.848-1.84-1.297-3.594-1.334-5.215c-0.05-2.195,0.59-3.588,0.625-3.663   c2.545-3.85,3.08-6.121,1.731-7.355c-0.75-0.687-1.554-0.953-2.389-0.787c-2.029,0.401-3.53,3.287-3.941,4.162l-0.198,0.412   c-0.451,0.928-0.657,1.351-1.18,4.277c-0.411,2.3,0.294,4.478,1.928,8.204c0.097,0.221,0.185,0.446,0.265,0.678   c-1.786-0.3-3.293-0.074-4.483,0.68c-0.396,0.251-0.715,0.54-0.981,0.834c-0.004,0.004-0.009,0.006-0.013,0.01   c-0.001,0.002-0.001,0.003-0.003,0.005c-0.871,0.969-1.111,2.003-1.118,2.039c-0.479,1.63-0.364,2.891-0.002,3.859   c0.004,0.019,0.003,0.038,0.01,0.056c0.006,0.014,0.02,0.021,0.027,0.034c0.759,1.898,2.486,2.609,2.513,2.619   c0.683,0.264,1.32,0.415,1.918,0.483c0.008,0.001,0.015,0.005,0.023,0.006c0.007,0,0.014,0,0.021,0   c0.234,0.025,0.463,0.04,0.684,0.04c3.043,0,4.85-2.258,5.477-3.21c0.045,0.052,0.112,0.135,0.196,0.242   c0.014,0.027,0.023,0.055,0.043,0.079c0.012,0.015,0.03,0.021,0.044,0.033c0.306,0.403,0.807,1.115,1.507,2.272   c0.448,0.571,1.389,1.338,2.486,1.338c0.484,0,0.998-0.149,1.515-0.53c0.497-0.367,1.968-1.399,2.757-1.905   C25.006,26.809,25.222,26.342,25,25.977z M16.985,25.759l1.396-1.185c0.11,0.421,0.216,0.796,0.317,1.118l-0.931,1.207   C17.462,26.422,17.203,26.048,16.985,25.759z M18.203,23.692l-1.724,1.463c-0.079-0.081-0.149-0.146-0.213-0.198   c0.566-1.325,0.841-2.427,0.927-3.365C17.83,22.125,18.097,23.108,18.203,23.692z M10.325,24.421   c-0.406-0.069-0.736-0.397-0.964-0.928c-0.002-0.006-0.171-0.651,0.159-1.041c0.232-0.274,0.661-0.351,1.068-0.351   c0.126,0,0.251,0.007,0.366,0.018c0.249,0.025,0.876,0.105,1.28,0.159c-0.04,0.487-0.142,1.217-0.442,1.548   C11.576,24.064,10.933,24.523,10.325,24.421z M13.017,20.092l3.304-0.334c0.075,0.357,0.121,0.743,0.122,1.17   c0,0.016-0.003,0.031-0.001,0.046c-0.002,0.341-0.036,0.712-0.103,1.11l-3.322,0.212c0.009-0.114,0.021-0.232,0.026-0.341   C13.078,21.242,13.063,20.635,13.017,20.092z M16.106,18.989l-3.185,0.322c-0.144-0.875-0.381-1.542-0.636-2.124   c-0.09-0.207-0.167-0.39-0.251-0.586l2.93-0.405c0.184,0.528,0.392,1.062,0.642,1.603C15.78,18.174,15.958,18.563,16.106,18.989z    M10.675,12.964l3.56-0.279c0.054,0.886,0.22,1.804,0.495,2.748l-3.017,0.417C11.253,14.743,10.91,13.809,10.675,12.964z    M10.412,9.436c0.026-0.143,0.05-0.275,0.074-0.406l4.052,0.275c-0.167,0.625-0.32,1.51-0.332,2.592l-3.717,0.291   C10.288,11.206,10.252,10.329,10.412,9.436z M11.524,5.365l0.202-0.421c0.766-1.629,2.057-3.463,3.381-3.724   c0.586-0.116,1.142,0.08,1.704,0.595c0.982,0.899,0.369,2.983-1.876,6.371c-0.005,0.007-0.005,0.016-0.009,0.023   c-0.004,0.008-0.012,0.012-0.016,0.02c-0.008,0.016-0.058,0.121-0.128,0.304l-4.151-0.281C10.979,6.491,11.164,6.108,11.524,5.365z    M12.071,19.037c0.148,0.671,0.226,1.449,0.201,2.452c-0.287-0.038-0.656-0.085-0.939-0.119l-0.393-2.507   C11.299,18.89,11.681,18.957,12.071,19.037z M7.769,19.526c0.663-0.42,1.467-0.624,2.375-0.66l0.386,2.458   c-0.492,0.008-0.907,0.1-1.224,0.294l-2.061-1.69C7.401,19.786,7.573,19.65,7.769,19.526z M5.994,21.945   c0.002-0.01,0.17-0.705,0.72-1.434l2.042,1.675c-0.378,0.679-0.163,1.485-0.137,1.565c0.024,0.057,0.051,0.104,0.077,0.157   l-2.838,1.096C5.645,24.214,5.622,23.213,5.994,21.945z M6.134,25.741l2.998-1.158c0.133,0.149,0.269,0.264,0.406,0.352   l-0.165,3.011c-0.416-0.077-0.847-0.185-1.308-0.363C7.983,27.552,6.793,27.061,6.134,25.741z M10.157,28.042l0.155-2.835   c0.062,0.006,0.125,0.015,0.187,0.015c0.365,0,0.715-0.111,1.025-0.26l2.033,2.071C12.717,27.645,11.585,28.116,10.157,28.042z    M14.162,26.525l-1.969-2.006c0.063-0.056,0.135-0.113,0.183-0.166c0.288-0.318,0.443-0.777,0.536-1.261l3.254-0.207   c-0.158,0.598-0.39,1.257-0.72,1.996C15.406,24.959,14.982,25.751,14.162,26.525z M18.339,27.817   c-0.044-0.073-0.083-0.136-0.126-0.205l0.797-1.033c0.206,0.508,0.401,0.836,0.592,1.046l-0.334,0.943   C18.718,28.28,18.354,27.833,18.339,27.817z M24.025,26.502c-0.779,0.5-2.235,1.518-2.799,1.935c-0.421,0.31-0.83,0.394-1.203,0.36   l0.284-0.802c0.383,0.035,0.744-0.159,1.105-0.367c1.42-0.815,2.256-1.095,2.675-1.168C24.067,26.475,24.047,26.489,24.025,26.502z"/>
    <ellipse transform="matrix(0.0901 -0.9959 0.9959 0.0901 8.4676 17.1451)" cx="13.617" cy="3.938" rx="0.461" ry="0.461"/>
    <ellipse transform="matrix(0.0901 -0.9959 0.9959 0.0901 9.3942 20.1317)" cx="15.715" cy="4.925" rx="0.461" ry="0.461"/>
    <path d="M14.497,6.646c0.175,0,0.353-0.026,0.529-0.08c0.208-0.063,0.325-0.284,0.261-0.492c-0.063-0.208-0.283-0.325-0.492-0.261   c-0.261,0.079-0.536,0.054-0.777-0.075C13.776,5.611,13.6,5.398,13.52,5.137c-0.063-0.208-0.282-0.327-0.492-0.261   C12.82,4.94,12.703,5.16,12.767,5.368C13.005,6.145,13.723,6.646,14.497,6.646z"/>
  </g>
</svg>
